<?xml version="1.0" encoding="utf-8"?>
<!-- Generator: Adobe Illustrator 23.0.1, SVG Export Plug-In . SVG Version: 6.00 Build 0)  -->
<svg version="1.1" id="Layer_1" xmlns="http://www.w3.org/2000/svg" xmlns:xlink="http://www.w3.org/1999/xlink" x="0px" y="0px"
	 viewBox="0 0 441.98 387.24" style="enable-background:new 0 0 441.98 387.24;" xml:space="preserve">
<path d="M32.44,265.26c0.57-7.01,1.11-13.64,1.63-20.26c0.92-11.7,1.83-23.4,2.74-35.1c0.93-11.95,1.84-23.9,2.78-35.85
	c0.89-11.37,1.82-22.73,2.71-34.1c0.79-10.12,1.59-20.25,2.3-30.38c1.03-14.53,8.41-25.33,19.81-33.71
	c6.82-5.02,14.55-7.94,23.17-9.15c0-0.95,0-1.85,0-2.75c0-16-0.01-32,0-47.99c0-10.16,5.62-15.78,15.76-15.79
	C148,0.11,192.66,0.05,237.32,0c4.41,0,8.83,0.07,13.24,0.19c8.28,0.22,14,6.08,14.02,14.41c0.03,16.25,0.01,32.5,0.01,48.74
	c0,0.9,0,1.81,0,3.04c1.13,0,2.09,0,3.06,0c25.41,0,50.83,0.33,76.24-0.12c16.62-0.3,29.36,6.69,39.97,18.64
	c6.22,7.01,10.92,14.99,12.8,24.25c0.96,4.7,1.05,9.58,1.41,14.39c0.84,11.12,1.6,22.25,2.39,33.38
	c0.88,12.54,1.75,25.07,2.64,37.61c0.76,10.71,1.56,21.42,2.33,32.13c0.73,10.21,1.44,20.42,2.17,30.64
	c0.18,2.49,0.38,4.97,0.61,7.91c2.05,0,4.09-0.04,6.12,0.01c13.37,0.28,24.19,9.07,26.98,22.06c0.47,2.18,0.64,4.46,0.65,6.7
	c0.05,21.5,0.05,42.99,0.02,64.49c-0.02,16.6-12.09,28.73-28.72,28.73c-127.65,0.02-255.29-0.01-382.94,0.05
	c-10.95,0.01-19.81-3.66-25.94-12.98c-2.76-4.19-4.29-8.85-4.3-13.88c-0.04-22.83-0.15-45.66,0.03-68.49
	c0.12-14.6,12.69-26.63,27.32-26.63C29.06,265.26,30.7,265.26,32.44,265.26z M286.78,110.63c-19.91,0-39.82-0.01-59.73,0
	c-4.98,0-6.96,1.97-6.97,6.95c-0.01,32.24-0.01,64.48,0,96.71c0,4.95,2.04,6.93,7.03,6.93c39.65,0.01,79.3,0.01,118.95,0
	c4.97,0,6.83-1.85,6.85-6.75c0.02-6.41,0-12.82,0-19.23c0-25.82,0-51.65,0-77.47c0-5.48-1.66-7.14-7.17-7.15
	C326.09,110.62,306.43,110.62,286.78,110.63z M109.92,221.23c5.16,0,10.32,0.02,15.48,0c4.78-0.02,6.68-1.9,6.69-6.61
	c0.01-3.08,0.01-6.16,0-9.24c-0.02-4.38-2.05-6.48-6.38-6.49c-10.57-0.03-21.14-0.03-31.71,0c-4.17,0.01-6.28,2.05-6.4,6.26
	c-0.1,3.24-0.08,6.49-0.01,9.74c0.1,4.29,2.23,6.32,6.6,6.34C99.43,221.25,104.67,221.23,109.92,221.23z M109.84,110.63
	c-5.32,0-10.65-0.03-15.97,0.01c-4.05,0.03-6.16,2.06-6.27,6.1c-0.09,3.41-0.11,6.82,0,10.23c0.12,3.85,2.32,5.91,6.22,5.91
	c10.73,0.02,21.46,0.03,32.19,0c4.01-0.01,6.05-2.14,6.07-6.24c0.02-3.24,0.02-6.49,0-9.73c-0.03-4.28-1.96-6.25-6.27-6.28
	C120.49,110.6,115.17,110.63,109.84,110.63z M175.97,132.9c5.5,0,11,0.04,16.5-0.01c3.69-0.03,5.72-2.06,5.78-5.73
	c0.06-3.67,0.06-7.33-0.01-11c-0.06-3.41-2.01-5.47-5.44-5.49c-11.08-0.07-22.16-0.07-33.24-0.01c-3.55,0.02-5.5,2.12-5.55,5.66
	c-0.04,3.42-0.02,6.83-0.01,10.25c0.02,4.4,1.98,6.32,6.47,6.33C165.64,132.91,170.81,132.9,175.97,132.9z M176.02,221.23
	c5.42,0,10.83,0.04,16.25-0.01c3.95-0.04,5.93-1.97,5.99-5.77c0.06-3.58,0.05-7.17,0-10.75c-0.06-3.6-2.16-5.78-5.75-5.8
	c-10.91-0.05-21.83-0.06-32.74,0.01c-3.65,0.02-5.7,2.2-5.74,5.81c-0.04,3.42-0.02,6.83-0.01,10.25c0.02,4.28,1.94,6.22,6.27,6.26
	C165.52,221.26,170.77,221.23,176.02,221.23z M109.71,176.99c5.49,0,10.98,0.03,16.47-0.01c3.76-0.03,5.85-2.11,5.9-5.85
	c0.04-3.41,0.03-6.82,0-10.23c-0.03-4.04-2.1-6.08-6.19-6.09c-10.65-0.02-21.29-0.01-31.94,0c-4.1,0-6.24,1.98-6.35,5.99
	c-0.1,3.41-0.1,6.82,0,10.23c0.12,3.95,2.22,5.93,6.14,5.95C99.06,177.01,104.38,176.99,109.71,176.99z M176.08,176.99
	c5.58,0,11.16,0.04,16.74-0.02c3.33-0.03,5.33-1.95,5.41-5.25c0.1-3.91,0.1-7.83-0.01-11.74c-0.08-3.07-2.2-5.13-5.29-5.15
	c-11.16-0.05-22.32-0.05-33.48,0c-3.38,0.01-5.33,2.05-5.4,5.52c-0.07,3.58-0.07,7.16-0.05,10.74c0.03,3.86,2,5.86,5.83,5.89
	C165.25,177.02,170.67,176.99,176.08,176.99z"/>
</svg>
